<?xml version="1.0" standalone="no"?>
<!DOCTYPE svg PUBLIC "-//W3C//DTD SVG 20010904//EN"
 "http://www.w3.org/TR/2001/REC-SVG-20010904/DTD/svg10.dtd">
<svg version="1.0" xmlns="http://www.w3.org/2000/svg"
 width="307.000000pt" height="307.000000pt" viewBox="0 0 307.000000 307.000000"
 preserveAspectRatio="xMidYMid meet">
<metadata>
Created by potrace 1.14, written by Peter Selinger 2001-2017
</metadata>
<g transform="translate(0.000000,307.000000) scale(0.100000,-0.100000)"
fill="#000000" stroke="none">
<path d="M675 2593 c-155 -33 -243 -107 -289 -244 -22 -66 -28 -114 -29 -219
-2 -245 48 -345 264 -520 247 -200 280 -256 273 -458 -6 -142 -48 -204 -140
-204 -95 0 -135 61 -142 216 -2 56 -6 103 -8 105 -8 9 -274 5 -277 -4 -2 -5
-3 -55 -2 -110 5 -212 63 -334 194 -404 34 -18 61 -30 61 -27 0 3 12 1 28 -5
39 -15 166 -20 233 -10 223 36 335 197 343 491 7 279 -67 417 -329 618 -187
142 -216 191 -211 349 1 56 9 110 16 126 24 50 90 70 144 46 47 -22 64 -87 66
-244 l0 -40 140 0 140 -1 1 46 c8 283 -69 430 -251 480 -45 13 -188 21 -225
13z"/>
<path d="M1351 1649 l0 -919 144 0 145 0 2 377 3 377 100 2 c157 3 248 31 324
100 71 64 114 156 128 276 9 79 8 308 -1 367 -22 136 -90 240 -189 289 -84 42
-139 49 -404 49 l-252 0 0 -918z m467 670 c79 -26 107 -114 100 -323 -5 -160
-17 -199 -75 -243 -30 -23 -47 -27 -119 -31 l-84 -5 0 306 c0 205 3 306 11
309 19 6 134 -3 167 -13z"/>
<path d="M2379 1816 c0 -413 -2 -758 -4 -767 -13 -70 -44 -89 -145 -89 l-70 0
0 -119 0 -119 29 -7 c48 -10 183 -8 243 4 78 17 144 63 179 126 53 96 55 119
54 953 l0 767 -142 1 -143 2 -1 -752z"/>
</g>
</svg>
